# xmcd
# 
# Track frame offsets:
#     150
#     13751
#     34800
#     51091
#     71017
#     84769
# 
# Disc length: 1429
# 
# Revision: 0
# Processed by: cddbd v1.5.2PL0 Copyright (c) Steve Scherf et al.
# Submitted via: fre:ac v1.0.27
# 
DISCID=43059306
DTITLE=Ed Skibbe - The Long Haul
DYEAR=2015
DGENRE=Country
TTITLE0=I Like a Little
TTITLE1=No Way to Go
TTITLE2=Not Enough Money
TTITLE3=From Her to There
TTITLE4=Long Haul
TTITLE5=Rebecca in the Rain
EXTD=
EXTT0=
EXTT1=
EXTT2=
EXTT3=
EXTT4=
EXTT5=
PLAYORDER=
